<svg width="173" height="148" viewBox="0 0 173 148" fill="none" xmlns="http://www.w3.org/2000/svg">
<path fill-rule="evenodd" clip-rule="evenodd" d="M39 110.444C39 109.236 39.4837 108.078 40.3446 107.223C41.2056 106.369 42.3733 105.889 43.5909 105.889H135.409C136.627 105.889 137.794 106.369 138.655 107.223C139.516 108.078 140 109.236 140 110.444C140 111.653 139.516 112.811 138.655 113.666C137.794 114.52 136.627 115 135.409 115H43.5909C42.3733 115 41.2056 114.52 40.3446 113.666C39.4837 112.811 39 111.653 39 110.444ZM39 74C39 72.7918 39.4837 71.6331 40.3446 70.7787C41.2056 69.9244 42.3733 69.4444 43.5909 69.4444H135.409C136.627 69.4444 137.794 69.9244 138.655 70.7787C139.516 71.6331 140 72.7918 140 74C140 75.2082 139.516 76.3669 138.655 77.2213C137.794 78.0756 136.627 78.5556 135.409 78.5556H43.5909C42.3733 78.5556 41.2056 78.0756 40.3446 77.2213C39.4837 76.3669 39 75.2082 39 74ZM39 37.5556C39 36.3473 39.4837 35.1886 40.3446 34.3343C41.2056 33.48 42.3733 33 43.5909 33H135.409C136.627 33 137.794 33.48 138.655 34.3343C139.516 35.1886 140 36.3473 140 37.5556C140 38.7638 139.516 39.9225 138.655 40.7768C137.794 41.6312 136.627 42.1111 135.409 42.1111H43.5909C42.3733 42.1111 41.2056 41.6312 40.3446 40.7768C39.4837 39.9225 39 38.7638 39 37.5556Z" fill="white"/>
</svg>
