<svg width="167" height="113" viewBox="0 0 167 113" fill="none" xmlns="http://www.w3.org/2000/svg">
<path d="M148.693 27.1L107.393 55.1H31.2928C31.2928 55.1 22.4928 54.9 22.4928 46.3C22.4928 37.7 29.6928 36.5 29.6928 36.5H109.593L157.893 3.89999C158.493 3.49999 158.893 2.79999 158.893 2.09999C158.893 0.899991 157.893 0 156.693 0H78.1928L22.9928 32C22.9928 32 15.1928 36 15.1928 46.9C15.1928 57.8 24.8928 62.8 29.3928 62.8C33.8928 62.8 109.393 62.9 109.393 62.9L158.593 29.2C159.093 28.9 159.293 28.4 159.293 27.8C159.293 26.9 158.593 26.2 157.693 26.2H151.993C150.693 26.2 149.593 26.5 148.693 27.1Z" fill="white"/>
<path d="M35.4928 32L80.6928 4.79999H143.293L139.293 6.89999H81.1928L39.6928 32H35.4928Z" fill="black"/>
<path d="M75.4928 19C75.1928 19 74.8928 18.7 74.8928 18.4V9.39999C74.8928 7.49999 73.3928 6 71.4928 6C69.5928 6 68.0928 7.49999 68.0928 9.39999V9.59999C68.0928 9.89999 67.7928 10.2 67.4928 10.2C67.1928 10.2 66.8928 9.89999 66.8928 9.59999V9.39999C66.8928 6.89999 68.9928 4.79999 71.4928 4.79999C73.9928 4.79999 76.0928 6.89999 76.0928 9.39999V18.4C76.0928 18.8 75.8928 19 75.4928 19Z" fill="black"/>
<path d="M80.6928 15.5C80.3928 15.5 80.0928 15.2 80.0928 14.9V5.89999C80.0928 3.99999 78.5928 2.5 76.6928 2.5C74.6928 2.5 73.2928 3.8 73.2928 5.7C73.2928 6 72.9928 6.29999 72.6928 6.29999C72.3928 6.29999 72.0928 6 72.0928 5.7C72.0928 3.2 74.0928 1.39999 76.6928 1.39999C79.1928 1.39999 81.2928 3.5 81.2928 6V15C81.2928 15.2 81.0928 15.5 80.6928 15.5Z" fill="black"/>
<path d="M75.6928 13.3C75.4928 13.3 75.2928 13.2 75.1928 13C74.9928 12.7 75.0928 12.4 75.3928 12.2L80.3928 8.9C80.6928 8.7 80.9928 8.79999 81.1928 9.09999C81.3928 9.39999 81.2928 9.7 80.9928 9.9L75.9928 13.2C75.8928 13.3 75.7928 13.3 75.6928 13.3Z" fill="black"/>
<path d="M75.6928 16.1C75.4928 16.1 75.2928 16 75.1928 15.8C74.9928 15.5 75.0928 15.2 75.3928 15L80.3928 11.7C80.6928 11.5 80.9928 11.6 81.1928 11.9C81.3928 12.2 81.2928 12.5 80.9928 12.7L75.9928 16C75.8928 16 75.7928 16.1 75.6928 16.1Z" fill="black"/>
<path d="M2.47521 92.6808V72.2403H9.38184C10.9854 72.2403 12.2962 72.5298 13.3142 73.1087C14.3389 73.6809 15.0974 74.4561 15.5898 75.4342C16.0822 76.4123 16.3284 77.5035 16.3284 78.7078C16.3284 79.9122 16.0822 81.0067 15.5898 81.9915C15.1041 82.9762 14.3522 83.7614 13.3342 84.3469C12.3162 84.9258 11.012 85.2152 9.42176 85.2152H4.47135V83.0195H9.34192C10.4398 83.0195 11.3214 82.8299 11.9868 82.4506C12.6522 82.0713 13.1346 81.559 13.434 80.9136C13.7401 80.2615 13.8931 79.5262 13.8931 78.7078C13.8931 77.8894 13.7401 77.1575 13.434 76.5121C13.1346 75.8667 12.6489 75.361 11.9768 74.995C11.3048 74.6224 10.4132 74.4361 9.302 74.4361H4.95042V92.6808H2.47521ZM37.5623 82.4606C37.5623 84.6164 37.1731 86.4795 36.3946 88.0497C35.6161 89.62 34.5481 90.831 33.1908 91.6827C31.8334 92.5344 30.2831 92.9602 28.5398 92.9602C26.7965 92.9602 25.2461 92.5344 23.8888 91.6827C22.5314 90.831 21.4635 89.62 20.685 88.0497C19.9065 86.4795 19.5172 84.6164 19.5172 82.4606C19.5172 80.3047 19.9065 78.4417 20.685 76.8714C21.4635 75.3011 22.5314 74.0901 23.8888 73.2384C25.2461 72.3867 26.7965 71.9609 28.5398 71.9609C30.2831 71.9609 31.8334 72.3867 33.1908 73.2384C34.5481 74.0901 35.6161 75.3011 36.3946 76.8714C37.1731 78.4417 37.5623 80.3047 37.5623 82.4606ZM35.1669 82.4606C35.1669 80.6907 34.8708 79.1969 34.2787 77.9792C33.6931 76.7616 32.898 75.84 31.8933 75.2146C30.8952 74.5891 29.7774 74.2764 28.5398 74.2764C27.3022 74.2764 26.181 74.5891 25.1763 75.2146C24.1782 75.84 23.3831 76.7616 22.7909 77.9792C22.2054 79.1969 21.9126 80.6907 21.9126 82.4606C21.9126 84.2305 22.2054 85.7243 22.7909 86.9419C23.3831 88.1595 24.1782 89.0811 25.1763 89.7065C26.181 90.332 27.3022 90.6447 28.5398 90.6447C29.7774 90.6447 30.8952 90.332 31.8933 89.7065C32.898 89.0811 33.6931 88.1595 34.2787 86.9419C34.8708 85.7243 35.1669 84.2305 35.1669 82.4606ZM58.9709 82.4606C58.9709 84.6164 58.5816 86.4795 57.8031 88.0497C57.0246 89.62 55.9567 90.831 54.5993 91.6827C53.2419 92.5344 51.6916 92.9602 49.9483 92.9602C48.205 92.9602 46.6547 92.5344 45.2973 91.6827C43.94 90.831 42.872 89.62 42.0935 88.0497C41.315 86.4795 40.9258 84.6164 40.9258 82.4606C40.9258 80.3047 41.315 78.4417 42.0935 76.8714C42.872 75.3011 43.94 74.0901 45.2973 73.2384C46.6547 72.3867 48.205 71.9609 49.9483 71.9609C51.6916 71.9609 53.2419 72.3867 54.5993 73.2384C55.9567 74.0901 57.0246 75.3011 57.8031 76.8714C58.5816 78.4417 58.9709 80.3047 58.9709 82.4606ZM56.5755 82.4606C56.5755 80.6907 56.2794 79.1969 55.6872 77.9792C55.1017 76.7616 54.3066 75.84 53.3018 75.2146C52.3038 74.5891 51.1859 74.2764 49.9483 74.2764C48.7107 74.2764 47.5896 74.5891 46.5848 75.2146C45.5868 75.84 44.7916 76.7616 44.1994 77.9792C43.6139 79.1969 43.3211 80.6907 43.3211 82.4606C43.3211 84.2305 43.6139 85.7243 44.1994 86.9419C44.7916 88.1595 45.5868 89.0811 46.5848 89.7065C47.5896 90.332 48.7107 90.6447 49.9483 90.6447C51.1859 90.6447 52.3038 90.332 53.3018 89.7065C54.3066 89.0811 55.1017 88.1595 55.6872 86.9419C56.2794 85.7243 56.5755 84.2305 56.5755 82.4606ZM63.1328 92.6808V72.2403H65.608V90.485H75.1096V92.6808H63.1328ZM93.1547 92.6808H86.8469V72.2403H93.4342C95.417 72.2403 97.1137 72.6496 98.5243 73.468C99.9349 74.2797 101.016 75.4475 101.768 76.9712C102.52 78.4883 102.896 80.3047 102.896 82.4206C102.896 84.5499 102.517 86.383 101.758 87.92C101 89.4504 99.895 90.6281 98.4445 91.4532C96.9939 92.2716 95.2307 92.6808 93.1547 92.6808ZM89.3221 90.485H92.995C94.6851 90.485 96.0857 90.159 97.1969 89.5069C98.3081 88.8549 99.1365 87.9267 99.6821 86.7223C100.228 85.518 100.5 84.0841 100.5 82.4206C100.5 80.7705 100.231 79.3499 99.692 78.1589C99.1531 76.9612 98.348 76.043 97.2767 75.4042C96.2055 74.7588 94.8714 74.4361 93.2745 74.4361H89.3221V90.485ZM109.523 72.2403V92.6808H107.048V72.2403H109.523ZM115.324 92.6808H112.729L120.235 72.2403H122.79L130.295 92.6808H127.7L121.592 75.4741H121.432L115.324 92.6808ZM116.282 84.6962H126.742V86.892H116.282V84.6962ZM133.479 92.6808V72.2403H140.386C141.983 72.2403 143.293 72.5132 144.318 73.0588C145.343 73.5977 146.101 74.3396 146.594 75.2845C147.086 76.2293 147.332 77.3039 147.332 78.5082C147.332 79.7126 147.086 80.7805 146.594 81.712C146.101 82.6435 145.346 83.3755 144.328 83.9078C143.31 84.4334 142.009 84.6962 140.426 84.6962H134.837V82.4606H140.346C141.437 82.4606 142.315 82.3009 142.981 81.9815C143.653 81.6621 144.139 81.2097 144.438 80.6241C144.744 80.0319 144.897 79.3266 144.897 78.5082C144.897 77.6898 144.744 76.9745 144.438 76.3624C144.132 75.7502 143.643 75.2778 142.971 74.9451C142.299 74.6058 141.41 74.4361 140.306 74.4361H135.954V92.6808H133.479ZM143.101 83.4986L148.131 92.6808H145.256L140.306 83.4986H143.101ZM149.014 72.2403H151.849L157.518 81.7819H157.757L163.426 72.2403H166.261L158.875 84.2571V92.6808H156.4V84.2571L149.014 72.2403Z" fill="white"/>
<path d="M2.45385 110.476L3.66124 103.204H7.87999L7.78056 103.8H4.22587L3.77132 106.538H7.10229L7.00286 107.135H3.67189L3.21735 109.88H6.84306L6.74363 110.476H2.45385ZM9.70882 103.204L11.2003 106.361H11.2465L13.7784 103.204H14.5703L11.6335 106.84L13.3629 110.476H12.5852L11.0938 107.355H11.0476L8.51564 110.476H7.72019L10.7067 106.84L8.92757 103.204H9.70882ZM14.6218 110.476L15.8292 103.204H18.1765C18.6926 103.204 19.1081 103.302 19.423 103.498C19.7378 103.695 19.9544 103.962 20.0728 104.301C20.1936 104.639 20.2184 105.022 20.1474 105.448C20.0787 105.869 19.9272 106.25 19.6928 106.591C19.4608 106.93 19.1543 107.199 18.7731 107.397C18.3943 107.596 17.9492 107.696 17.4379 107.696H15.5913L15.6907 107.099H17.5195C17.9007 107.099 18.2286 107.028 18.5032 106.886C18.7802 106.742 19.0016 106.545 19.1673 106.297C19.333 106.046 19.4419 105.763 19.494 105.448C19.5461 105.128 19.5295 104.844 19.4443 104.596C19.3614 104.347 19.2052 104.153 18.9755 104.013C18.7482 103.871 18.4428 103.8 18.0593 103.8H16.3938L15.2859 110.476H14.6218ZM20.8718 110.476L22.0792 103.204H24.4265C24.9426 103.204 25.3581 103.296 25.673 103.481C25.9902 103.665 26.2092 103.922 26.3299 104.251C26.453 104.578 26.4803 104.954 26.4116 105.38C26.3406 105.802 26.1891 106.175 25.957 106.499C25.7274 106.823 25.4244 107.078 25.048 107.263C24.6715 107.445 24.2276 107.536 23.7163 107.536H21.7205L21.8235 106.929H23.8015C24.1827 106.929 24.5094 106.866 24.7816 106.74C25.0539 106.615 25.2717 106.436 25.435 106.204C25.5984 105.972 25.7061 105.698 25.7582 105.38C25.8103 105.061 25.7925 104.783 25.7049 104.546C25.6197 104.309 25.4611 104.126 25.2291 103.995C24.9994 103.865 24.6928 103.8 24.3093 103.8H22.6438L21.5359 110.476H20.8718ZM24.6218 107.195L25.8683 110.476H25.1048L23.8796 107.195H24.6218ZM27.1804 110.476L28.3878 103.204H32.6066L32.5071 103.8H28.9524L28.4979 106.538H31.8289L31.7294 107.135H28.3985L27.9439 109.88H31.5696L31.4702 110.476H27.1804ZM37.9652 105.061C37.9818 104.635 37.8551 104.301 37.5852 104.059C37.3177 103.818 36.9425 103.697 36.4595 103.697C36.1234 103.697 35.8156 103.756 35.5362 103.875C35.2593 103.991 35.0308 104.151 34.8509 104.354C34.6733 104.558 34.5632 104.79 34.5206 105.05C34.4898 105.242 34.504 105.41 34.5632 105.554C34.6224 105.696 34.7136 105.82 34.8367 105.924C34.9598 106.028 35.1006 106.117 35.2593 106.19C35.4202 106.263 35.5836 106.325 35.7493 106.375L36.4844 106.595C36.7022 106.659 36.9188 106.74 37.1343 106.84C37.3497 106.939 37.5414 107.064 37.7095 107.213C37.8776 107.362 38.0019 107.545 38.0824 107.763C38.1653 107.981 38.1818 108.241 38.1321 108.544C38.0658 108.937 37.9072 109.289 37.6563 109.599C37.4077 109.907 37.081 110.151 36.6762 110.331C36.2713 110.511 35.8038 110.601 35.2735 110.601C34.7787 110.601 34.362 110.519 34.0235 110.356C33.6849 110.19 33.4352 109.961 33.2742 109.67C33.1132 109.379 33.0516 109.042 33.0895 108.658H33.7713C33.7453 108.945 33.7986 109.187 33.9311 109.386C34.0661 109.585 34.2578 109.736 34.5064 109.841C34.7574 109.942 35.0462 109.993 35.3729 109.993C35.7351 109.993 36.0677 109.933 36.3708 109.812C36.6738 109.689 36.9236 109.519 37.12 109.301C37.3189 109.081 37.442 108.825 37.4894 108.534C37.532 108.288 37.5024 108.08 37.4006 107.912C37.3012 107.744 37.1461 107.603 36.9354 107.49C36.7271 107.374 36.4785 107.272 36.1896 107.184L35.3587 106.929C34.8165 106.763 34.4129 106.53 34.1477 106.229C33.885 105.928 33.7914 105.545 33.8672 105.079C33.9335 104.686 34.0957 104.341 34.3537 104.045C34.6141 103.747 34.9373 103.515 35.3232 103.349C35.7091 103.183 36.1257 103.101 36.5732 103.101C37.0253 103.101 37.4101 103.185 37.7273 103.353C38.0469 103.521 38.2836 103.753 38.4375 104.049C38.5938 104.342 38.6518 104.68 38.6115 105.061H37.9652ZM44.2543 105.061C44.2709 104.635 44.1442 104.301 43.8743 104.059C43.6068 103.818 43.2316 103.697 42.7486 103.697C42.4124 103.697 42.1047 103.756 41.8253 103.875C41.5483 103.991 41.3199 104.151 41.1399 104.354C40.9624 104.558 40.8523 104.79 40.8097 105.05C40.7789 105.242 40.7931 105.41 40.8523 105.554C40.9115 105.696 41.0026 105.82 41.1257 105.924C41.2488 106.028 41.3897 106.117 41.5483 106.19C41.7093 106.263 41.8727 106.325 42.0384 106.375L42.7735 106.595C42.9913 106.659 43.2079 106.74 43.4233 106.84C43.6387 106.939 43.8305 107.064 43.9986 107.213C44.1667 107.362 44.291 107.545 44.3715 107.763C44.4543 107.981 44.4709 108.241 44.4212 108.544C44.3549 108.937 44.1963 109.289 43.9453 109.599C43.6968 109.907 43.37 110.151 42.9652 110.331C42.5604 110.511 42.0928 110.601 41.5625 110.601C41.0677 110.601 40.6511 110.519 40.3125 110.356C39.974 110.19 39.7242 109.961 39.5632 109.67C39.4022 109.379 39.3407 109.042 39.3786 108.658H40.0604C40.0343 108.945 40.0876 109.187 40.2202 109.386C40.3551 109.585 40.5469 109.736 40.7955 109.841C41.0464 109.942 41.3352 109.993 41.6619 109.993C42.0242 109.993 42.3568 109.933 42.6598 109.812C42.9628 109.689 43.2126 109.519 43.4091 109.301C43.608 109.081 43.7311 108.825 43.7784 108.534C43.821 108.288 43.7914 108.08 43.6896 107.912C43.5902 107.744 43.4352 107.603 43.2244 107.49C43.0161 107.374 42.7675 107.272 42.4787 107.184L41.6477 106.929C41.1056 106.763 40.702 106.53 40.4368 106.229C40.174 105.928 40.0805 105.545 40.1563 105.079C40.2226 104.686 40.3847 104.341 40.6428 104.045C40.9032 103.747 41.2263 103.515 41.6122 103.349C41.9981 103.183 42.4148 103.101 42.8622 103.101C43.3144 103.101 43.6991 103.185 44.0164 103.353C44.336 103.521 44.5727 103.753 44.7266 104.049C44.8828 104.342 44.9408 104.68 44.9006 105.061H44.2543ZM48.5085 110.476L49.7159 103.204H53.924L53.8246 103.8H50.2806L49.826 106.538H53.0398L52.9404 107.135H49.7266L49.1726 110.476H48.5085ZM54.3679 110.476L55.5753 103.204H57.9226C58.4387 103.204 58.8542 103.296 59.1691 103.481C59.4863 103.665 59.7053 103.922 59.826 104.251C59.9491 104.578 59.9763 104.954 59.9077 105.38C59.8367 105.802 59.6852 106.175 59.4531 106.499C59.2235 106.823 58.9205 107.078 58.5441 107.263C58.1676 107.445 57.7237 107.536 57.2124 107.536H55.2166L55.3196 106.929H57.2976C57.6788 106.929 58.0055 106.866 58.2777 106.74C58.55 106.615 58.7678 106.436 58.9311 106.204C59.0945 105.972 59.2022 105.698 59.2543 105.38C59.3064 105.061 59.2886 104.783 59.201 104.546C59.1158 104.309 58.9572 104.126 58.7252 103.995C58.4955 103.865 58.1889 103.8 57.8054 103.8H56.1399L55.032 110.476H54.3679ZM58.1179 107.195L59.3644 110.476H58.6009L57.3757 107.195H58.1179ZM60.6765 110.476L61.8839 103.204H66.1026L66.0032 103.8H62.4485L61.994 106.538H65.3249L65.2255 107.135H61.8945L61.44 109.88H65.0657L64.9663 110.476H60.6765ZM66.614 110.476L67.8214 103.204H72.0401L71.9407 103.8H68.386L67.9315 106.538H71.2624L71.163 107.135H67.832L67.3775 109.88H71.0032L70.9038 110.476H66.614ZM72.5515 110.476L73.7589 103.204H74.423L73.315 109.88H76.7809L76.6815 110.476H72.5515ZM78.3603 103.204H79.1167L80.704 106.655H80.7751L83.4988 103.204H84.2694L80.9597 107.326L80.4377 110.476H79.7772L80.2957 107.326L78.3603 103.204ZM85.0435 109.482L84.9086 109.862C84.8233 110.118 84.7192 110.398 84.5961 110.704C84.473 111.011 84.351 111.304 84.2303 111.581C84.1096 111.86 84.0078 112.084 83.9249 112.252H83.4384C83.4929 112.091 83.5639 111.886 83.6515 111.638C83.7414 111.389 83.8373 111.114 83.9391 110.814C84.0409 110.513 84.1392 110.202 84.2339 109.88L84.3546 109.482H85.0435ZM89.5046 110.476L90.712 103.204H91.3761L90.8221 106.538H94.9485L95.5025 103.204H96.1666L94.9592 110.476H94.2951L94.8491 107.135H90.7227L90.1687 110.476H89.5046ZM96.8874 110.476L98.0948 103.204H102.314L102.214 103.8H98.6595L98.2049 106.538H101.536L101.436 107.135H98.1055L97.6509 109.88H101.277L101.177 110.476H96.8874ZM102.836 110.476H102.14L105.993 103.204H106.703L108.141 110.476H107.445L106.234 104.066H106.188L102.836 110.476ZM103.802 107.689H107.409L107.31 108.285H103.702L103.802 107.689ZM109.387 110.476L110.595 103.204H111.259L110.151 109.88H113.617L113.517 110.476H109.387ZM120.811 108.204H121.55L122.484 109.436L122.64 109.642L123.78 111.158H123.042L122.203 110.039L122.058 109.841L120.811 108.204ZM124.384 106.879C124.258 107.629 124.017 108.282 123.659 108.836C123.302 109.39 122.865 109.818 122.349 110.121C121.833 110.424 121.272 110.576 120.666 110.576C120.043 110.576 119.518 110.421 119.089 110.111C118.663 109.798 118.361 109.36 118.184 108.797C118.006 108.231 117.98 107.566 118.105 106.801C118.231 106.05 118.472 105.398 118.83 104.844C119.187 104.29 119.625 103.862 120.144 103.559C120.662 103.256 121.226 103.104 121.834 103.104C122.45 103.104 122.971 103.259 123.397 103.569C123.823 103.879 124.126 104.317 124.306 104.883C124.486 105.447 124.512 106.112 124.384 106.879ZM123.748 106.801C123.857 106.152 123.843 105.599 123.706 105.142C123.571 104.686 123.339 104.336 123.01 104.095C122.681 103.851 122.282 103.729 121.813 103.729C121.328 103.729 120.872 103.855 120.446 104.106C120.02 104.354 119.656 104.714 119.355 105.185C119.055 105.654 118.849 106.218 118.738 106.879C118.631 107.525 118.645 108.078 118.78 108.537C118.915 108.994 119.147 109.345 119.476 109.589C119.808 109.83 120.209 109.951 120.68 109.951C121.168 109.951 121.625 109.825 122.051 109.574C122.477 109.323 122.839 108.964 123.137 108.495C123.438 108.024 123.642 107.459 123.748 106.801ZM131.536 103.204H132.2L131.404 108.019C131.322 108.514 131.132 108.956 130.836 109.347C130.54 109.735 130.166 110.042 129.714 110.267C129.264 110.489 128.766 110.601 128.219 110.601C127.675 110.601 127.214 110.488 126.838 110.263C126.461 110.038 126.189 109.732 126.021 109.343C125.853 108.955 125.81 108.514 125.893 108.019L126.689 103.204H127.353L126.561 107.973C126.499 108.359 126.529 108.703 126.65 109.006C126.77 109.307 126.971 109.544 127.253 109.716C127.537 109.889 127.89 109.976 128.311 109.976C128.735 109.976 129.119 109.889 129.462 109.716C129.808 109.544 130.092 109.307 130.314 109.006C130.539 108.703 130.684 108.359 130.748 107.973L131.536 103.204ZM134.794 103.204L133.587 110.476H132.923L134.13 103.204H134.794ZM135.52 110.476L136.728 103.204H140.946L140.847 103.8H137.292L136.838 106.538H140.169L140.069 107.135H136.738L136.284 109.88H139.909L139.81 110.476H135.52ZM142.125 103.8L142.225 103.204H147.498L147.399 103.8H145.094L143.986 110.476H143.322L144.43 103.8H142.125ZM147.786 110.476L148.993 103.204H149.657L148.549 109.88H152.015L151.916 110.476H147.786ZM153.595 103.204H154.351L155.938 106.655H156.009L158.733 103.204H159.504L156.194 107.326L155.672 110.476H155.012L155.53 107.326L153.595 103.204Z" fill="white"/>
</svg>
